<svg width="226" height="206" viewBox="0 0 226 206" fill="none" xmlns="http://www.w3.org/2000/svg">
<path fill-rule="evenodd" clip-rule="evenodd" d="M126.27 1.92274C146.454 8.60554 158.63 24.3133 159.623 44.9487C160.192 56.7747 160.21 56.7602 152.608 51.0475C133.033 36.3403 107.364 33.9064 84.6861 44.6079C73.0334 50.1065 74.5351 59.7695 88.0115 66.0124C105.697 74.2057 128.944 73.3944 152.813 63.7518C178.921 53.2047 197.184 55.2628 212.386 70.4666C244.003 102.085 216.347 156.725 172.471 149.325C162.408 147.628 162.441 147.705 168.096 139.283C192.999 102.184 175.46 79.7757 120.589 78.5856C82.5201 77.7597 66.8706 68.2701 66.8706 46.012C66.8706 16.8396 99.0931 -7.07603 126.27 1.92274ZM56.7809 57.7579C64.4672 59.4097 64.3522 58.8081 58.6234 67.3423C33.6591 104.53 51.1279 126.749 106.329 128.023C149.406 129.018 165.754 142.691 158.261 171.46C144.876 222.847 69.6454 214.697 67.0876 161.583C66.5356 150.142 66.7628 149.849 72.5775 154.471C92.2006 170.065 119.463 172.958 142.179 161.856C159.487 153.396 146.815 138.914 119.252 135.656C102.404 133.663 90.1424 136.008 67.175 145.616C40.036 156.969 9.65308 142.996 2.28422 115.772C-6.83836 82.0712 22.8498 50.4663 56.7809 57.7579Z" fill="#F5F2EB"/>
</svg>
